<svg width="128" height="128" viewBox="0 0 128 128" fill="none" xmlns="http://www.w3.org/2000/svg">
  <defs>
    <linearGradient id="bg" x1="18" y1="14" x2="112" y2="118" gradientUnits="userSpaceOnUse">
      <stop offset="0" stop-color="#6D5EF6"/>
      <stop offset="0.52" stop-color="#2368F2"/>
      <stop offset="1" stop-color="#06B6D4"/>
    </linearGradient>
    <linearGradient id="panel" x1="32" y1="34" x2="96" y2="96" gradientUnits="userSpaceOnUse">
      <stop offset="0" stop-color="#FFFFFF"/>
      <stop offset="1" stop-color="#EAF2FF"/>
    </linearGradient>
    <filter id="shadow" x="11" y="14" width="106" height="104" filterUnits="userSpaceOnUse" color-interpolation-filters="sRGB">
      <feDropShadow dx="0" dy="9" stdDeviation="9" flood-color="#0B122A" flood-opacity="0.24"/>
    </filter>
  </defs>

  <rect x="8" y="8" width="112" height="112" rx="30" fill="url(#bg)"/>
  <path d="M101 21C110.5 28.5 115.5 41.5 116 56.5C116.5 71.5 112.5 88.5 101 101C89.5 113.5 70.5 121.5 53 118C35.5 114.5 19.5 99.5 14.5 82.5C9.5 65.5 15.5 46.5 27 34C38.5 21.5 55.5 15.5 70.5 15C85.5 14.5 91.5 13.5 101 21Z" fill="#FFFFFF" opacity="0.1"/>

  <g filter="url(#shadow)">
    <rect x="29" y="31" width="70" height="66" rx="18" fill="url(#panel)"/>
    <rect x="39" y="46" width="35" height="8" rx="4" fill="#18233F"/>
    <rect x="39" y="62" width="49" height="7" rx="3.5" fill="#5870A6"/>
    <rect x="39" y="76" width="29" height="7" rx="3.5" fill="#8FA3CC"/>
    <path d="M82 74L91 83L82 92" stroke="#2368F2" stroke-width="7" stroke-linecap="round" stroke-linejoin="round"/>
  </g>

  <path d="M32 103L47 96L40 89" fill="#EAF2FF"/>
  <circle cx="96" cy="32" r="9" fill="#FFFFFF" opacity="0.9"/>
</svg>
